<?xml version="1.0" encoding="UTF-8" standalone="no"?>
<svg
   width="485.21484"
   zoomAndPan="magnify"
   viewBox="0 0 363.91113 199.32559"
   height="265.76746"
   preserveAspectRatio="xMidYMid"
   version="1.0"
   id="svg63"
   sodipodi:docname="logo3.svg"
   inkscape:version="1.3.2 (091e20e, 2023-11-25, custom)"
   xmlns:inkscape="http://www.inkscape.org/namespaces/inkscape"
   xmlns:sodipodi="http://sodipodi.sourceforge.net/DTD/sodipodi-0.dtd"
   xmlns="http://www.w3.org/2000/svg"
   xmlns:svg="http://www.w3.org/2000/svg">
  <sodipodi:namedview
     id="namedview63"
     pagecolor="#ffffff"
     bordercolor="#000000"
     borderopacity="0.25"
     inkscape:showpageshadow="2"
     inkscape:pageopacity="0.0"
     inkscape:pagecheckerboard="0"
     inkscape:deskcolor="#d1d1d1"
     inkscape:zoom="1.626"
     inkscape:cx="240.4674"
     inkscape:cy="144.21894"
     inkscape:window-width="2560"
     inkscape:window-height="1009"
     inkscape:window-x="1592"
     inkscape:window-y="-8"
     inkscape:window-maximized="1"
     inkscape:current-layer="svg63" />
  <defs
     id="defs9">
    <g
       id="g1" />
    <clipPath
       id="69baac4e0c">
      <path
         d="M 45.269531,193 H 102 v 38.84766 H 45.269531 Z m 0,0"
         clip-rule="nonzero"
         id="path1" />
    </clipPath>
    <clipPath
       id="5385faad27">
      <path
         d="M 47,168.84766 H 83 V 228 H 47 Z m 0,0"
         clip-rule="nonzero"
         id="path2" />
    </clipPath>
    <clipPath
       id="41a058f4bc">
      <path
         d="m 201.17578,240.97266 h 96 V 272 h -96 z m 0,0"
         clip-rule="nonzero"
         id="path3" />
    </clipPath>
    <clipPath
       id="ed6039e217">
      <path
         d="M 129.87109,241.69531 H 270 v 50.25 H 129.87109 Z m 0,0"
         clip-rule="nonzero"
         id="path4" />
    </clipPath>
    <clipPath
       id="6aad06526b">
      <path
         d="m 130.625,115.41016 h 55.5 v 91.5 h -55.5 z m 0,0"
         clip-rule="nonzero"
         id="path5" />
    </clipPath>
    <clipPath
       id="da1f8b908a">
      <path
         d="m 185.71484,156.44141 h 111.10938 v 49.5 H 185.71484 Z m 0,0"
         clip-rule="nonzero"
         id="path6" />
    </clipPath>
    <clipPath
       id="6493bc4e9b">
      <path
         d="M 111,75.621094 H 217 V 106 H 111 Z m 0,0"
         clip-rule="nonzero"
         id="path7" />
    </clipPath>
    <clipPath
       id="4413e8b130">
      <path
         d="m 126,96 h 77 v 23.87109 h -77 z m 0,0"
         clip-rule="nonzero"
         id="path8" />
    </clipPath>
    <clipPath
       id="1956538415">
      <path
         d="m 140,117 h 48 v 2.87109 h -48 z m 0,0"
         clip-rule="nonzero"
         id="path9" />
    </clipPath>
  </defs>
  <g
     clip-path="url(#69baac4e0c)"
     id="g10"
     transform="matrix(1.2685063,0,0,1.2685063,-57.424688,-95.925834)">
    <path
       fill="#3d194f"
       d="m 90.03125,205.47656 11.91016,26.6836 h -9.265629 l -8.5625,-19.1875 c -7.0625,7.5039 -16.328125,13.0039 -28.265625,16.59765 l -1.152344,2.58985 H 45.4375 l 0.02344,-0.0508 -0.191407,0.0391 c 21.992188,-9.02735 35.777344,-23.06641 39.570313,-38.32032 z m 0,0"
       fill-opacity="1"
       fill-rule="nonzero"
       id="path10" />
  </g>
  <g
     clip-path="url(#5385faad27)"
     id="g11"
     transform="matrix(1.2685063,0,0,1.2685063,-57.424688,-95.925834)">
    <path
       fill="#1f2020"
       d="M 47.324219,227.93359 69.816406,177.5 l 3.863282,-8.64844 3.875,8.64844 5.257812,11.78906 -0.949219,3.80469 c -0.695312,2.81641 -1.734375,5.5 -3.035156,8.02344 l -5.148437,-11.50782 -14.109376,31.62891 c -3.957031,2.59766 -8.117187,4.83594 -12.246093,6.69531 z m 0,0"
       fill-opacity="1"
       fill-rule="nonzero"
       id="path11" />
  </g>
  <g
     fill="#1f2020"
     fill-opacity="1"
     id="g16"
     transform="matrix(1.2685063,0,0,1.2685063,-57.424688,-95.925834)">
    <g
       transform="translate(106.28622,232.52081)"
       id="g15">
      <g
         id="g14">
        <path
           d="m 13.6875,-5.75 v -10.765625 h -3.265625 v 10.75 c 0,3.453125 -5.359375,3.453125 -5.359375,0 v -10.75 H 1.75 V -5.75 c 0,7.84375 11.9375,7.84375 11.9375,0 z m 0,0"
           id="path14" />
      </g>
    </g>
  </g>
  <g
     fill="#1f2020"
     fill-opacity="1"
     id="g19"
     transform="matrix(1.2685063,0,0,1.2685063,-57.424688,-95.925834)">
    <g
       transform="translate(124.15576,232.52081)"
       id="g18">
      <g
         id="g17">
        <path
           d="m 7.875,0 v -13.203125 h 4.109375 v -3.28125 H 0.46875 v 3.28125 H 4.578125 V 0 Z m 0,0"
           id="path16" />
      </g>
    </g>
  </g>
  <g
     fill="#1f2020"
     fill-opacity="1"
     id="g22"
     transform="matrix(1.2685063,0,0,1.2685063,-57.424688,-95.925834)">
    <g
       transform="translate(139.16255,232.52081)"
       id="g21">
      <g
         id="g20">
        <path
           d="m 9.796875,0.234375 c 11.359375,0 11.359375,-17.03125 0,-17.03125 -11.375,0 -11.375,17.03125 0,17.03125 z m 0,-3.421875 c -6.609375,0 -6.609375,-10.203125 0,-10.203125 6.59375,0 6.59375,10.203125 0,10.203125 z m 0,0"
           id="path19" />
      </g>
    </g>
  </g>
  <g
     fill="#1f2020"
     fill-opacity="1"
     id="g25"
     transform="matrix(1.2685063,0,0,1.2685063,-57.424688,-95.925834)">
    <g
       transform="translate(161.09536,232.52081)"
       id="g24">
      <g
         id="g23">
        <path
           d="m 9.421875,-9.515625 -6.515625,-7.25 H 1.84375 V 0 h 3.359375 v -9.21875 l 4.21875,4.4375 4.21875,-4.4375 L 13.625,0 h 3.34375 V -16.765625 H 15.9375 Z m 0,0"
           id="path22" />
      </g>
    </g>
  </g>
  <g
     fill="#1f2020"
     fill-opacity="1"
     id="g28"
     transform="matrix(1.2685063,0,0,1.2685063,-57.424688,-95.925834)">
    <g
       transform="translate(182.31248,232.52081)"
       id="g27">
      <g
         id="g26">
        <path
           d="M 0.375,0 H 4.109375 L 4.75,-1.78125 h 5.484375 L 10.90625,0 H 14.625 L 7.671875,-17.109375 H 7.328125 Z M 5.953125,-4.875 7.5,-9.171875 9,-4.875 Z m 0,0"
           id="path25" />
      </g>
    </g>
  </g>
  <g
     fill="#1f2020"
     fill-opacity="1"
     id="g31"
     transform="matrix(1.2685063,0,0,1.2685063,-57.424688,-95.925834)">
    <g
       transform="translate(199.76646,232.52081)"
       id="g30">
      <g
         id="g29">
        <path
           d="m 7.875,0 v -13.203125 h 4.109375 v -3.28125 H 0.46875 v 3.28125 H 4.578125 V 0 Z m 0,0"
           id="path28" />
      </g>
    </g>
  </g>
  <g
     fill="#1f2020"
     fill-opacity="1"
     id="g34"
     transform="matrix(1.2685063,0,0,1.2685063,-57.424688,-95.925834)">
    <g
       transform="translate(214.77325,232.52081)"
       id="g33">
      <g
         id="g32">
        <path
           d="M 5.15625,0 V -16.515625 H 1.84375 V 0 Z m 0,0"
           id="path31" />
      </g>
    </g>
  </g>
  <g
     fill="#1f2020"
     fill-opacity="1"
     id="g37"
     transform="matrix(1.2685063,0,0,1.2685063,-57.424688,-95.925834)">
    <g
       transform="translate(224.16998,232.52081)"
       id="g36">
      <g
         id="g35">
        <path
           d="M 11.5625,0 V -3.328125 H 5.421875 l 5.96875,-13.1875 h -10 v 3.21875 H 6.46875 C 4.484375,-8.890625 2.5,-4.4375 0.515625,0 Z m 0,0"
           id="path34" />
      </g>
    </g>
  </g>
  <g
     fill="#1f2020"
     fill-opacity="1"
     id="g40"
     transform="matrix(1.2685063,0,0,1.2685063,-57.424688,-95.925834)">
    <g
       transform="translate(238.89973,232.52081)"
       id="g39">
      <g
         id="g38">
        <path
           d="M 0.375,0 H 4.109375 L 4.75,-1.78125 h 5.484375 L 10.90625,0 H 14.625 L 7.671875,-17.109375 H 7.328125 Z M 5.953125,-4.875 7.5,-9.171875 9,-4.875 Z m 0,0"
           id="path37" />
      </g>
    </g>
  </g>
  <g
     fill="#1f2020"
     fill-opacity="1"
     id="g43"
     transform="translate(-6.9853998,-5.5103942)">
    <g
       transform="translate(256.35371,232.52081)"
       id="g42">
      <g
         id="g41" />
    </g>
  </g>
  <g
     fill="#1f2020"
     fill-opacity="1"
     id="g46"
     transform="matrix(1.2685063,0,0,1.2685063,-57.424688,-95.925834)">
    <g
       transform="translate(265.2887,232.52081)"
       id="g45">
      <g
         id="g44">
        <path
           d="m 10.09375,-13.203125 v -3.3125 h -8.25 V 0 h 3.3125 V -6.609375 H 9.359375 V -9.90625 H 5.15625 v -3.296875 z m 0,0"
           id="path43" />
      </g>
    </g>
  </g>
  <g
     fill="#1f2020"
     fill-opacity="1"
     id="g49"
     transform="matrix(1.2685063,0,0,1.2685063,-57.424688,-95.925834)">
    <g
       transform="translate(278.63325,232.52081)"
       id="g48">
      <g
         id="g47">
        <path
           d="M 11.125,-20.921875 H 6.828125 l -1.21875,3.25 h 3.1875 z M 7.96875,-16.71875 H 7.015625 L 0.375,0 H 4.109375 L 4.75,-1.78125 h 5.484375 L 10.90625,0 H 14.625 Z M 9,-4.875 H 5.953125 L 7.5,-9.28125 Z m 0,0"
           id="path46" />
      </g>
    </g>
  </g>
  <g
     fill="#1f2020"
     fill-opacity="1"
     id="g52"
     transform="matrix(1.2685063,0,0,1.2685063,-57.424688,-95.925834)">
    <g
       transform="translate(296.08724,232.52081)"
       id="g51">
      <g
         id="g50">
        <path
           d="M 12.359375,-12.671875 12.75,-16.078125 c -1,-0.4375 -2.109375,-0.640625 -3.265625,-0.640625 -11.171875,0 -11.1875,16.765625 0,16.765625 1.15625,0 2.609375,-0.28125 3.640625,-0.6875 L 12.671875,-4.0625 c -0.609375,0.328125 -1.75,0.734375 -3.1875,0.734375 -6.53125,0 -6.53125,-10.0625 0,-10.0625 1.4375,0 2.25,0.390625 2.875,0.71875 z m 0,0"
           id="path49" />
      </g>
    </g>
  </g>
  <g
     fill="#1f2020"
     fill-opacity="1"
     id="g55"
     transform="matrix(1.2685063,0,0,1.2685063,-57.424688,-95.925834)">
    <g
       transform="translate(312.3638,232.52081)"
       id="g54">
      <g
         id="g53">
        <path
           d="M 5.15625,0 V -16.515625 H 1.84375 V 0 Z m 0,0"
           id="path52" />
      </g>
    </g>
  </g>
  <g
     fill="#1f2020"
     fill-opacity="1"
     id="g58"
     transform="matrix(1.2685063,0,0,1.2685063,-57.424688,-95.925834)">
    <g
       transform="translate(321.76051,232.52081)"
       id="g57">
      <g
         id="g56">
        <path
           d="M 1.84375,-16.515625 V 0 h 8.546875 V -3.296875 H 5.15625 v -13.21875 z m 0,0"
           id="path55" />
      </g>
    </g>
  </g>
  <g
     clip-path="url(#6aad06526b)"
     id="g59"
     transform="matrix(1.2685063,0,0,1.2685063,-57.424688,-95.925834)">
    <path
       fill="#3d194f"
       d="m 271.89453,370.48047 c 0,-1.0625 0.53125,-2.125 1.0625,-3.1875 14.34766,-19.12891 14.87891,-23.37891 14.87891,-60.57422 0,-21.25781 -6.90625,-46.76172 -6.90625,-46.76172 -0.53125,-1.06641 0,-2.12891 0,-3.19141 2.65625,-7.4375 -1.0625,-14.875 -7.97266,-17.0039 -3.1875,-1.0625 -6.91016,-1.0625 -10.09766,0.53125 -3.1875,1.59765 -5.84375,4.2539 -6.90625,7.4414 -1.0625,2.65625 -3.71875,4.25 -6.90625,3.1875 -2.66015,-1.0625 -4.2539,-3.71875 -3.1914,-6.90625 l 3.72265,-10.6289 c 2.125,-6.91016 -1.0664,-13.81641 -7.97265,-16.47266 l -1.0625,-0.53125 c -6.90625,-2.125 -13.81641,1.0625 -16.47266,7.96875 l -2.125,5.84375 c -1.0625,2.66016 -3.72265,4.25391 -6.3789,3.72266 -2.65625,-0.53125 -4.25,-3.19141 -4.25,-5.84766 l 1.59375,-12.21875 v -2.125 c 0,-7.4414 -6.375,-13.28515 -13.81641,-13.28515 -3.71875,0 -6.90625,1.59375 -9.5625,3.71875 -2.125,2.125 -3.71875,5.3125 -3.71875,8.5 l 1.0625,46.23046 c 0,3.19141 -2.125,5.31641 -5.31641,5.31641 -3.1875,0 -5.3125,-2.125 -5.3125,-5.31641 v -45.16406 c 0,-0.53125 0,-0.53125 0,-1.0664 v -73.32813 c 0,-7.44141 -5.84765,-13.28515 -13.28515,-13.28515 -7.44141,0 -13.28516,5.84374 -13.28516,13.28515 v 140.81641 c 0.53125,0 1.0625,-0.53125 1.59375,-0.53125 1.59375,0 3.1875,0.53125 4.25,2.125 2.12891,2.125 1.59766,5.84765 -0.53125,7.4414 l -6.90625,5.84375 -0.53125,0.53125 c -12.75391,8.5 -13.81641,15.94141 -13.81641,32.41407 v 0.53125 c 0.53125,21.78515 19.12891,37.72656 19.12891,37.72656 1.59375,1.0625 2.125,2.65625 2.125,4.25 v 21.25781 c 0,5.84375 4.78516,10.62891 10.62891,10.62891 h 96.17968 c 5.3125,0 10.09766,-4.78516 10.09766,-10.62891 z m 26.57031,-63.76172 c 0,37.19531 -0.53125,44.63281 -15.9414,65.35937 v 19.66016 c 0,11.69141 -9.03516,21.25391 -20.72657,21.25391 h -96.17968 c -11.69141,0 -21.25391,-9.5625 -21.25391,-21.25391 v -19.12891 c -5.84375,-5.3164 -21.25781,-22.32031 -21.25781,-44.63671 v -0.53125 c 0,-16.47266 1.59375,-28.16407 15.94531,-39.32032 V 139.33203 c 0,-13.28515 10.625,-23.91406 23.91016,-23.91406 13.28515,0 23.91406,10.62891 23.91406,23.91406 v 54.73047 c 3.71875,-2.65625 8.5,-4.25 13.28125,-4.25 11.69141,0 21.78906,8.50391 23.91406,19.66016 5.84375,-3.71875 13.28516,-4.78125 20.19141,-2.65625 l 1.0625,0.53125 c 9.5664,3.1875 15.9414,12.22265 15.9414,21.78515 4.78125,-1.59375 10.62891,-1.59375 15.41016,0 12.22266,4.25391 18.60156,17.00781 15.41016,29.22656 1.0625,6.37891 6.3789,28.69532 6.3789,48.35938"
       fill-opacity="1"
       fill-rule="nonzero"
       id="path58" />
  </g>
  <g
     clip-path="url(#da1f8b908a)"
     id="g60"
     transform="matrix(1.2685063,0,0,1.2685063,-57.424688,-95.925834)">
    <path
       fill="#3d194f"
       d="m 159.11328,93.675781 c 4.17578,0.0039 8.11328,1.644531 11.09766,4.625 2.97656,2.976559 4.61718,6.914059 4.61718,11.089849 v 61.16796 c 0,0.10938 0.0273,0.21094 0.0352,0.31641 -2.94141,4.30859 -4.53125,9.375 -4.53125,14.68359 v 39.21094 c 0,14.43359 11.74609,26.18359 26.23047,26.1875 l 0.48047,-0.004 c 6.75,0 12.89453,-2.58984 17.54297,-6.80078 4.76172,4.33203 10.98828,6.80078 17.61328,6.80469 l 0.48437,-0.004 c 7.39844,0 14.07422,-3.09765 18.83985,-8.04687 4.85156,5.05078 11.61718,8.04687 18.91406,8.05078 l 0.48047,-0.004 c 5.91797,0 11.36719,-2 15.75781,-5.32812 v 13.84375 c 0,11.23047 -2.00391,29.27734 -4.47266,40.23437 l -9.60937,42.63282 H 159.21484 l -12.1875,-29.90235 c -4.47265,-10.97656 -13.49609,-27.89843 -20.11328,-37.72265 L 97.984375,231.74609 c -1.367187,-2.42968 -2.023437,-5.1914 -1.980469,-8.05468 0.0078,-0.0977 0.0039,-0.19922 0,-0.29297 -0.164062,-4.41407 1.476563,-8.53125 4.546874,-11.59766 l 26.25,-26.24219 c 2.89063,-2.89453 6.73047,-4.5039 10.84375,-4.5664 0.0898,-0.004 0.17578,-0.0117 0.26172,-0.0117 4.21484,0 8.16016,1.62109 11.12109,4.58594 l 0.35547,0.35546 c 6.12891,6.12891 6.12891,16.10157 0.004,22.22657 l -14.99219,14.99609 c -1.67969,1.67578 -2.02344,4.26953 -0.83594,6.32031 l 2.46094,4.26563 c 1.44922,2.5039 4.64844,3.36328 7.15625,1.91797 2.5,-1.44922 3.36328,-4.64844 1.91406,-7.15625 l -0.44922,-0.78125 12.15235,-12.15625 c 10.21094,-10.20703 10.21094,-26.82422 -0.0117,-37.04688 l -0.35547,-0.35937 c -3.74219,-3.73828 -8.4375,-6.19922 -13.54687,-7.17188 l 0.004,-61.58593 c 0,-4.17188 1.64063,-8.11719 4.6211,-11.093755 2.97656,-2.980469 6.91406,-4.621094 11.09375,-4.621094 z m 37.92578,76.171879 c 8.66406,0 15.71485,7.04687 15.71485,15.71093 v 39.20703 c 0,8.66407 -7.04688,15.71094 -15.75391,15.71094 l -0.47656,0.008 c -8.66407,-0.004 -15.71485,-7.05468 -15.71485,-15.71484 v -39.21094 c 0,-4.17578 1.64063,-8.11328 4.61719,-11.09375 2.98047,-2.98047 6.91797,-4.61718 11.09375,-4.61718 z m 35.1211,12.5664 h 0.52343 c 8.66016,0 15.70703,7.05078 15.70703,15.71094 v 26.64062 c 0,8.66407 -7.04687,15.71094 -15.75,15.71094 l -0.48046,0.008 c -4.31641,-0.004 -8.36329,-1.80078 -11.3086,-4.8789 1.51172,-3.3086 2.37891,-6.97266 2.37891,-10.83985 v -39.20703 c 0,-0.10156 -0.0156,-0.20312 -0.0156,-0.30468 2.61328,-1.82032 5.72657,-2.83985 8.94532,-2.83985 z m 38.23437,10.47656 h 0.51953 c 4.17969,0 8.11719,1.64063 11.09766,4.6211 2.97656,2.97656 4.61719,6.91015 4.61719,11.08984 l 0.004,16.16016 c -0.004,8.66797 -7.05469,15.71484 -15.75781,15.71484 l -0.48047,0.008 c -5.30859,-0.004 -10.14453,-2.69921 -13.03906,-7.03125 0.96484,-2.72265 1.51172,-5.64062 1.51172,-8.6875 V 198.125 c 0,-0.0469 -0.008,-0.0937 -0.008,-0.14453 2.96875,-3.20703 7.16797,-5.08985 11.53516,-5.08985 z M 140.09375,90.890625 c -4.95703,4.957031 -7.68359,11.523435 -7.68359,18.496095 l -0.004,61.70312 c -4.90234,1.03907 -9.40625,3.44532 -13.01562,7.0586 l -26.242192,26.24218 c -5.03125,5.02735 -7.824219,12.05079 -7.621094,19.1836 -0.05859,4.78906 1.105468,9.46094 3.464844,13.55469 0.05859,0.10156 0.125,0.20703 0.195312,0.30859 l 29.03906,43.12109 c 6.28125,9.33203 14.85156,25.40235 19.10156,35.82813 l 13.51563,33.16015 c 0.80078,1.97657 2.71484,3.26563 4.84766,3.26563 h 121.09375 c 2.4414,0 4.5664,-1.69922 5.10546,-4.08594 l 10.52735,-46.71875 c 2.61328,-11.58203 4.73828,-30.66406 4.73828,-42.53906 v -34.70313 c 0,-0.16796 -0.0352,-0.32812 -0.0508,-0.49218 l -0.004,-15.66797 c 0,-0.004 0,-0.004 0,-0.008 0,-6.96875 -2.72656,-13.53907 -7.68359,-18.49219 -4.95703,-4.95703 -11.53125,-7.69141 -18.50391,-7.69141 h -0.51953 c -5.07812,0 -10.01172,1.51953 -14.21094,4.23828 -4.26562,-8.69922 -13.18359,-14.71093 -23.5,-14.71093 h -0.52343 c -3.98047,0 -7.85547,0.9414 -11.3711,2.64843 -4.16015,-8.96875 -13.22656,-15.21875 -23.75,-15.21875 h -0.51953 c -3.94531,0 -7.75,0.90235 -11.21875,2.5586 v -52.53906 c 0,-6.96875 -2.72656,-13.542974 -7.68359,-18.500005 -4.95703,-4.957031 -11.52735,-7.6875 -18.50391,-7.6875 h -0.51562 c -6.97266,0 -13.54297,2.726563 -18.50391,7.6875"
       fill-opacity="1"
       fill-rule="nonzero"
       id="path59" />
  </g>
  <g
     clip-path="url(#6493bc4e9b)"
     id="g61"
     transform="matrix(1.2685063,0,0,1.2685063,-57.424688,-95.925834)">
    <path
       fill="#3d194f"
       d="m 164.09375,75.621094 c -4.77734,-0.01172 -9.50391,0.441406 -14.1875,1.367187 -4.68359,0.925781 -9.23047,2.300781 -13.64063,4.128907 -4.41015,1.824218 -8.59765,4.066406 -12.5664,6.726562 -3.96484,2.65625 -7.62891,5.675781 -10.99609,9.0625 -0.24219,0.242188 -0.45704,0.503906 -0.64454,0.789062 -0.1914,0.28125 -0.35156,0.582032 -0.48046,0.894532 -0.13282,0.316406 -0.23047,0.640625 -0.29688,0.976562 -0.0664,0.335938 -0.0977,0.671874 -0.0977,1.011724 0,0.34375 0.0312,0.67968 0.0977,1.01562 0.0664,0.33203 0.16406,0.66016 0.29688,0.97266 0.1289,0.3164 0.28906,0.61718 0.48046,0.89843 0.1875,0.28516 0.40235,0.54688 0.64454,0.78907 0.24218,0.24218 0.5039,0.45703 0.78906,0.64453 0.28125,0.1914 0.58203,0.35156 0.89844,0.48047 0.3125,0.1289 0.63671,0.23047 0.97265,0.29687 0.33594,0.0664 0.67188,0.0977 1.01172,0.0977 0.34375,0 0.67969,-0.0312 1.01563,-0.0977 0.33593,-0.0664 0.66015,-0.16797 0.97265,-0.29687 0.31641,-0.12891 0.61719,-0.28907 0.89844,-0.48047 0.28516,-0.1875 0.54687,-0.40235 0.78906,-0.64453 1.44141,-1.44141 2.95313,-2.8086 4.53125,-4.10157 1.57422,-1.292965 3.21094,-2.507809 4.91016,-3.640621 1.69531,-1.128907 3.4414,-2.175781 5.24218,-3.136719 1.80079,-0.960938 3.64063,-1.832031 5.52344,-2.613281 1.88672,-0.777344 3.80469,-1.464844 5.75781,-2.054688 1.94922,-0.59375 3.92579,-1.085937 5.92579,-1.484375 2,-0.398437 4.01562,-0.695312 6.04687,-0.898437 2.03125,-0.199219 4.0625,-0.296875 6.10547,-0.296875 2.03906,0 4.07031,0.09766 6.10156,0.296875 2.03125,0.203125 4.04688,0.5 6.04688,0.898437 2,0.398438 3.97656,0.890625 5.92578,1.484375 1.95312,0.589844 3.87109,1.277344 5.75781,2.054688 1.88281,0.78125 3.72266,1.652343 5.52344,2.613281 1.80078,0.960938 3.54687,2.007812 5.24219,3.136719 1.69921,1.132812 3.33593,2.347656 4.91015,3.640621 1.57813,1.29297 3.08985,2.66016 4.53125,4.10157 0.24219,0.24218 0.50391,0.45703 0.78906,0.64453 0.28125,0.1914 0.58204,0.35156 0.89844,0.48047 0.3125,0.1289 0.63672,0.23047 0.97266,0.29687 0.33594,0.0664 0.67187,0.0977 1.01562,0.0977 0.33985,0 0.67578,-0.0312 1.01172,-0.0977 0.33594,-0.0664 0.66016,-0.16797 0.97266,-0.29687 0.3164,-0.12891 0.61719,-0.28907 0.89844,-0.48047 0.28515,-0.1875 0.54687,-0.40235 0.78906,-0.64453 0.24219,-0.24219 0.45703,-0.50391 0.64453,-0.78907 0.19141,-0.28125 0.35156,-0.58203 0.48047,-0.89843 0.13281,-0.3125 0.23047,-0.64063 0.29687,-0.97266 0.0664,-0.33594 0.0977,-0.67187 0.0977,-1.01562 0,-0.33985 -0.0312,-0.675786 -0.0977,-1.011724 -0.0664,-0.335937 -0.16406,-0.660156 -0.29687,-0.976562 -0.12891,-0.3125 -0.28906,-0.613282 -0.48047,-0.894532 -0.1875,-0.285156 -0.40234,-0.546874 -0.64453,-0.789062 -3.36719,-3.386719 -7.03125,-6.40625 -10.9961,-9.0625 -3.96875,-2.660156 -8.15625,-4.902344 -12.5664,-6.726562 -4.41016,-1.828126 -8.95703,-3.203126 -13.64063,-4.128907 -4.68359,-0.925781 -9.41015,-1.378906 -14.18359,-1.367187 z m 0,0"
       fill-opacity="1"
       fill-rule="nonzero"
       id="path60" />
  </g>
  <g
     clip-path="url(#4413e8b130)"
     id="g62"
     transform="matrix(1.2685063,0,0,1.2685063,-57.424688,-95.925834)">
    <path
       fill="#3d194f"
       d="m 164.09375,96.394531 c -3.40625,-0.01172 -6.78125,0.304688 -10.125,0.960938 -3.33984,0.652343 -6.58594,1.625 -9.73828,2.921871 -3.14844,1.29688 -6.13672,2.89063 -8.97266,4.78125 -2.83203,1.89063 -5.45312,4.03907 -7.85937,6.44532 -0.22656,0.24609 -0.42188,0.50781 -0.59766,0.78906 -0.17187,0.28516 -0.3164,0.57812 -0.43359,0.89062 -0.11719,0.3086 -0.20313,0.62891 -0.25781,0.95313 -0.0547,0.32812 -0.0781,0.65625 -0.0742,0.98437 0.008,0.33204 0.0469,0.66016 0.11718,0.98438 0.0703,0.32422 0.16797,0.63672 0.29688,0.94141 0.13281,0.30468 0.28906,0.59375 0.47266,0.86718 0.1875,0.27344 0.39453,0.53125 0.6289,0.76563 0.23438,0.23437 0.48828,0.4414 0.76172,0.6289 0.27344,0.1875 0.5625,0.34375 0.86719,0.47266 0.30468,0.13281 0.61718,0.23438 0.9414,0.30469 0.32422,0.0703 0.65235,0.10937 0.98047,0.11719 0.33203,0.008 0.66016,-0.0156 0.98828,-0.0703 0.32422,-0.0547 0.64453,-0.14062 0.95313,-0.25781 0.3125,-0.11328 0.60937,-0.25781 0.89062,-0.42969 0.28125,-0.17187 0.54688,-0.37109 0.78907,-0.59375 0.96484,-0.96093 1.96875,-1.87109 3.02343,-2.73437 1.05078,-0.86328 2.14063,-1.67188 3.27344,-2.42578 1.12891,-0.75782 2.29688,-1.45703 3.49609,-2.09766 1.19922,-0.64062 2.42579,-1.21875 3.6836,-1.73828 1.25781,-0.52344 2.53515,-0.98047 3.83594,-1.375 1.30468,-0.39453 2.62109,-0.72266 3.95312,-0.98828 1.33594,-0.26563 2.67969,-0.46485 4.03125,-0.59766 1.35547,-0.13281 2.71094,-0.19922 4.07422,-0.19922 1.35937,0 2.71484,0.0664 4.07031,0.19922 1.35156,0.13281 2.69531,0.33203 4.03125,0.59766 1.33203,0.26562 2.64844,0.59375 3.95313,0.98828 1.30078,0.39453 2.57812,0.85156 3.83593,1.375 1.25782,0.51953 2.48438,1.09766 3.6836,1.73828 1.19922,0.64063 2.36719,1.33984 3.49609,2.09766 1.13281,0.7539 2.22266,1.5625 3.27344,2.42578 1.05469,0.86328 2.05859,1.77344 3.02344,2.73437 0.23828,0.23828 0.5,0.45313 0.78515,0.64063 0.28125,0.1914 0.58203,0.34765 0.89453,0.48047 0.31641,0.1289 0.64063,0.22656 0.97266,0.29297 0.33203,0.0664 0.66797,0.0977 1.01172,0.0977 0.33984,0 0.67578,-0.0312 1.00781,-0.0977 0.33594,-0.0664 0.65625,-0.16407 0.97266,-0.29297 0.3125,-0.13282 0.61328,-0.28907 0.89453,-0.48047 0.28516,-0.1875 0.54687,-0.40235 0.78516,-0.64063 0.24609,-0.24218 0.46093,-0.5039 0.65234,-0.78515 0.1875,-0.28516 0.35156,-0.58203 0.48047,-0.89844 0.13281,-0.31641 0.23047,-0.64063 0.29687,-0.97656 0.0703,-0.33203 0.10157,-0.67188 0.10157,-1.01172 0,-0.34375 -0.0312,-0.67969 -0.10157,-1.01563 -0.0664,-0.33593 -0.16406,-0.66015 -0.29687,-0.97656 -0.12891,-0.3125 -0.29297,-0.61328 -0.48047,-0.89844 -0.19141,-0.28125 -0.40625,-0.54297 -0.65234,-0.78515 -2.40625,-2.40625 -5.02735,-4.55469 -7.85938,-6.44532 -2.83594,-1.89062 -5.82422,-3.48437 -8.97266,-4.78125 -3.15234,-1.296871 -6.39843,-2.269528 -9.73828,-2.921871 -3.34375,-0.65625 -6.71875,-0.972657 -10.12109,-0.960938 z m 0,0"
       fill-opacity="1"
       fill-rule="nonzero"
       id="path61" />
  </g>
  <g
     clip-path="url(#1956538415)"
     id="g63"
     transform="matrix(1.2685063,0,0,1.2685063,-57.424688,-95.925834)">
    <path
       fill="#3d194f"
       d="m 142.07031,126.27344 c -0.25781,0.23828 -0.49219,0.49609 -0.69531,0.78125 -0.20703,0.28515 -0.38281,0.58594 -0.52734,0.90625 -0.14454,0.32031 -0.25782,0.65234 -0.33594,0.99218 -0.0781,0.34375 -0.1211,0.69141 -0.12891,1.03907 -0.008,0.35156 0.0195,0.69922 0.0859,1.04687 0.0625,0.34375 0.16016,0.67969 0.28906,1.00391 0.13281,0.32812 0.29297,0.63672 0.48828,0.92969 0.19141,0.29296 0.41407,0.5625 0.66407,0.8125 0.24609,0.24609 0.51953,0.46484 0.8125,0.66015 0.29296,0.19141 0.60156,0.35547 0.92578,0.48438 0.32812,0.1289 0.66406,0.22656 1.00781,0.28906 0.34766,0.0625 0.69531,0.0898 1.04687,0.0781 0.35157,-0.008 0.69532,-0.0508 1.03907,-0.1289 0.33984,-0.0781 0.67187,-0.19141 0.99218,-0.33594 0.32032,-0.14844 0.6211,-0.32422 0.90235,-0.53125 0.28515,-0.20703 0.54297,-0.44141 0.78125,-0.69922 0.48047,-0.48047 0.98437,-0.93359 1.50781,-1.36719 0.52734,-0.42968 1.07422,-0.83203 1.63672,-1.21093 0.56641,-0.375 1.14844,-0.72657 1.75,-1.04297 0.59766,-0.32031 1.21094,-0.60938 1.83984,-0.8711 0.62891,-0.25781 1.26563,-0.48828 1.91797,-0.68359 0.64844,-0.19922 1.3086,-0.36328 1.97266,-0.49609 0.66797,-0.13281 1.33984,-0.23047 2.01562,-0.29688 0.67578,-0.0664 1.35547,-0.10156 2.03516,-0.10156 0.67578,0 1.35547,0.0352 2.03125,0.10156 0.67578,0.0664 1.34766,0.16407 2.01562,0.29688 0.66407,0.13281 1.32422,0.29687 1.97266,0.49609 0.65234,0.19531 1.28906,0.42578 1.91797,0.68359 0.62891,0.26172 1.24219,0.55079 1.83984,0.8711 0.60157,0.3164 1.1836,0.66797 1.75,1.04297 0.5625,0.3789 1.10938,0.78125 1.63672,1.21093 0.52344,0.4336 1.02735,0.88672 1.50781,1.36719 0.23829,0.25781 0.4961,0.49219 0.78125,0.69922 0.28125,0.20703 0.58204,0.38281 0.90235,0.53125 0.32031,0.14453 0.65234,0.25781 0.99219,0.33594 0.34375,0.0781 0.6875,0.12109 1.03906,0.1289 0.35156,0.0117 0.69922,-0.0156 1.04687,-0.0781 0.34375,-0.0625 0.67969,-0.16016 1.00782,-0.28906 0.32421,-0.12891 0.63281,-0.29297 0.92578,-0.48438 0.29297,-0.19531 0.5664,-0.41406 0.8125,-0.66015 0.25,-0.25 0.47265,-0.51954 0.66406,-0.8125 0.19531,-0.29297 0.35547,-0.60157 0.48828,-0.92969 0.13281,-0.32422 0.22656,-0.66016 0.28906,-1.00391 0.0664,-0.34765 0.0937,-0.69531 0.0859,-1.04687 -0.008,-0.34766 -0.0508,-0.69532 -0.12891,-1.03907 -0.0781,-0.33984 -0.1914,-0.67187 -0.33593,-0.99218 -0.14453,-0.32031 -0.32032,-0.6211 -0.52735,-0.90625 -0.20312,-0.28516 -0.4375,-0.54297 -0.69531,-0.78125 -0.72266,-0.71875 -1.47656,-1.40235 -2.26562,-2.04688 -0.78907,-0.64843 -1.60938,-1.2539 -2.45704,-1.82031 -0.84765,-0.56641 -1.72265,-1.08594 -2.62109,-1.56641 -0.89844,-0.48046 -1.82031,-0.91406 -2.76172,-1.30468 -0.94531,-0.39063 -1.90234,-0.73438 -2.8789,-1.02735 -0.97657,-0.29687 -1.96485,-0.54297 -2.96485,-0.74218 -1,-0.19922 -2.00781,-0.34766 -3.01953,-0.44922 -1.01562,-0.0977 -2.03125,-0.14844 -3.05078,-0.14844 -1.02344,0 -2.03906,0.0508 -3.05469,0.14844 -1.01172,0.10156 -2.01953,0.25 -3.01953,0.44922 -1,0.19921 -1.98828,0.44531 -2.96484,0.74218 -0.97657,0.29297 -1.9336,0.63672 -2.87891,1.02735 -0.94141,0.39062 -1.86328,0.82422 -2.76172,1.30468 -0.89844,0.48047 -1.77344,1 -2.62109,1.56641 -0.84766,0.56641 -1.66797,1.17188 -2.45703,1.82031 -0.78907,0.64453 -1.54297,1.32813 -2.26563,2.04688 z m 0,0"
       fill-opacity="1"
       fill-rule="nonzero"
       id="path62" />
  </g>
</svg>
